<svg xmlns="http://www.w3.org/2000/svg" xmlns:xlink="http://www.w3.org/1999/xlink" x="0" y="0" width="662" height="346.59375" style="
        width:662px;
        height:346.59375px;
        background: transparent;
        fill: none;
">
        
        
        <svg xmlns="http://www.w3.org/2000/svg" class="role-diagram-draw-area"><g class="shapes-region" style="stroke: black; fill: none;"><g class="composite-shape"><path class="real" d=" M240.6,50.8 C240.6,36.99 251.79,25.8 265.6,25.8 C279.41,25.8 290.6,36.99 290.6,50.8 C290.6,64.61 279.41,75.8 265.6,75.8 C251.79,75.8 240.6,64.61 240.6,50.8 Z" style="stroke-width: 1; stroke: rgb(0, 0, 0); fill: none; fill-opacity: 1;"/></g><g class="composite-shape"><path class="real" d=" M310.8,160 C310.8,146.19 321.99,135 335.8,135 C349.61,135 360.8,146.19 360.8,160 C360.8,173.81 349.61,185 335.8,185 C321.99,185 310.8,173.81 310.8,160 Z" style="stroke-width: 1; stroke: rgb(0, 0, 0); fill: none; fill-opacity: 1;"/></g><g class="composite-shape"><path class="real" d=" M150.6,160.8 C150.6,146.99 161.79,135.8 175.6,135.8 C189.41,135.8 200.6,146.99 200.6,160.8 C200.6,174.61 189.41,185.8 175.6,185.8 C161.79,185.8 150.6,174.61 150.6,160.8 Z" style="stroke-width: 1; stroke: rgb(0, 0, 0); fill: none; fill-opacity: 1;"/></g><g class="arrow-line"><path class="connection real" stroke-dasharray="" d="  M248.8,69.6 L192.29,139.27" style="stroke: rgb(0, 0, 0); stroke-width: 1; fill: none; fill-opacity: 1;"/><g stroke="none" fill="#000" transform="matrix(0.6299983391261323,-0.7765964799677596,0.7765964799677596,0.6299983391261323,190.39999999999998,141.60000000000002)" style="stroke: none; fill: rgb(0, 0, 0); stroke-width: 1;"><path d=" M8.93,-4.29 L0,0 L8.93,4.29 Z"/></g></g><g class="composite-shape"><path class="real" d=" M235.6,283.8 C235.6,269.99 246.79,258.8 260.6,258.8 C274.41,258.8 285.6,269.99 285.6,283.8 C285.6,297.61 274.41,308.8 260.6,308.8 C246.79,308.8 235.6,297.61 235.6,283.8 Z" style="stroke-width: 1; stroke: rgb(0, 0, 0); fill: none; fill-opacity: 1;"/></g><g class="arrow-line"><path class="connection real" stroke-dasharray="" d="  M188.2,183.8 L242.23,257.98" style="stroke: rgb(0, 0, 0); stroke-width: 1; fill: none; fill-opacity: 1;"/><g stroke="none" fill="#000" transform="matrix(-0.5887732140930066,-0.8082982756177267,0.8082982756177267,-0.5887732140930066,244,260.40624999999994)" style="stroke: none; fill: rgb(0, 0, 0); stroke-width: 1;"><path d=" M8.93,-4.29 L0,0 L8.93,4.29 Z"/></g></g><g class="arrow-line"><path class="connection real" stroke-dasharray="" d="  M330.8,184.6 L278.75,256.97" style="stroke: rgb(0, 0, 0); stroke-width: 1; fill: none; fill-opacity: 1;"/><g stroke="none" fill="#000" transform="matrix(0.583824646425907,-0.8118797831118008,0.8118797831118008,0.583824646425907,277,259.40625)" style="stroke: none; fill: rgb(0, 0, 0); stroke-width: 1;"><path d=" M8.93,-4.29 L0,0 L8.93,4.29 Z"/></g></g><g/></g><g/><g/><g/></svg>
        <svg xmlns="http://www.w3.org/2000/svg" xmlns:xlink="http://www.w3.org/1999/xlink" width="660" height="344.59375" style="width:660px;height:344.59375px;font-family:Asana-Math, Asana;background:transparent;"><g><g><g><g><g><g><g transform="matrix(1,0,0,1,259.59375,56.796875)"><path transform="matrix(0.017,0,0,-0.017,0,0)" d="M795 664L798 692L782 692L691 689C676 689 655 689 611 690L548 692L545 664L593 662C617 661 628 653 628 634C628 629 628 626 627 622L556 177C508 119 478 93 427 68C389 48 352 39 314 39C229 39 175 84 175 154C175 171 177 187 182 215L270 692L239 691C212 690 192 689 181 689C171 689 151 690 123 691L91 692L88 664L140 662C166 661 174 656 174 639C174 630 171 602 167 581L103 206C99 185 97 160 97 144C97 43 164 -19 276 -19C320 -19 361 -9 409 15C468 44 500 69 552 129C544 83 538 57 525 2L530 -3L552 -3L614 0C618 0 640 -1 672 -2L704 -3L709 25L649 29C626 31 617 37 617 50C617 65 618 70 623 106L708 613C714 651 721 657 759 661Z" stroke="rgb(0,0,0)" stroke-opacity="1" stroke-width="8" fill="rgb(0,0,0)" fill-opacity="1"></path></g></g><g><g><g><g><g transform="matrix(1,0,0,1,273.3125,59.80625)"><path transform="matrix(0.0119,0,0,-0.0119,0,0)" d="M418 -3L418 27L366 30C311 33 301 44 301 96L301 700L60 598L67 548L217 614L217 96C217 44 206 33 152 30L96 27L96 -3C250 0 250 0 261 0C292 0 402 -3 418 -3Z" stroke="rgb(0,0,0)" stroke-opacity="1" stroke-width="8" fill="rgb(0,0,0)" fill-opacity="1"></path></g></g></g></g></g></g></g></g></g></g><g><g><g><g><g><g><g transform="matrix(1,0,0,1,328,166)"><path transform="matrix(0.017,0,0,-0.017,0,0)" d="M795 664L798 692L782 692L691 689C676 689 655 689 611 690L548 692L545 664L593 662C617 661 628 653 628 634C628 629 628 626 627 622L556 177C508 119 478 93 427 68C389 48 352 39 314 39C229 39 175 84 175 154C175 171 177 187 182 215L270 692L239 691C212 690 192 689 181 689C171 689 151 690 123 691L91 692L88 664L140 662C166 661 174 656 174 639C174 630 171 602 167 581L103 206C99 185 97 160 97 144C97 43 164 -19 276 -19C320 -19 361 -9 409 15C468 44 500 69 552 129C544 83 538 57 525 2L530 -3L552 -3L614 0C618 0 640 -1 672 -2L704 -3L709 25L649 29C626 31 617 37 617 50C617 65 618 70 623 106L708 613C714 651 721 657 759 661Z" stroke="rgb(0,0,0)" stroke-opacity="1" stroke-width="8" fill="rgb(0,0,0)" fill-opacity="1"></path></g></g><g><g><g><g><g transform="matrix(1,0,0,1,341.71875,169.009375)"><path transform="matrix(0.0119,0,0,-0.0119,0,0)" d="M16 23L16 -3C203 -3 203 0 239 0C275 0 275 -3 468 -3L468 82C353 77 307 81 122 77L304 270C401 373 431 428 431 503C431 618 353 689 226 689C154 689 105 669 56 619L39 483L68 483L81 529C97 587 133 612 200 612C286 612 341 558 341 473C341 398 299 324 186 204Z" stroke="rgb(0,0,0)" stroke-opacity="1" stroke-width="8" fill="rgb(0,0,0)" fill-opacity="1"></path></g></g></g></g></g></g></g></g></g></g><g><g><g><g><g><g><g transform="matrix(1,0,0,1,250.59375,287.796875)"><path transform="matrix(0.017,0,0,-0.017,0,0)" d="M416 25L416 -3C464 -1 509 0 551 0C591 0 636 -1 684 -3L684 25L659 27C618 30 605 37 591 61L420 368L641 620C671 653 680 659 706 662L734 664L734 692L620 689C608 689 594 689 505 692L505 664L538 662C570 660 583 655 583 643C583 632 578 623 560 601L399 405L295 604C286 622 281 634 281 642C281 654 294 660 324 662L361 664L361 692L315 691C274 690 244 689 228 689C211 689 181 690 140 691L95 692L95 664L121 662C170 657 182 650 202 613L348 343L110 61C95 43 72 31 48 28L20 25L20 -3C69 -1 110 0 145 0C181 0 221 -1 264 -3L264 25L232 28C194 32 177 38 177 50C177 58 181 67 187 75L369 306L488 80C497 62 502 49 502 40C502 32 495 29 470 29L454 28Z" stroke="rgb(0,0,0)" stroke-opacity="1" stroke-width="8" fill="rgb(0,0,0)" fill-opacity="1"></path></g></g><g><g><g><g><g transform="matrix(1,0,0,1,263.359375,290.80625)"><path transform="matrix(0.0119,0,0,-0.0119,0,0)" d="M16 23L16 -3C203 -3 203 0 239 0C275 0 275 -3 468 -3L468 82C353 77 307 81 122 77L304 270C401 373 431 428 431 503C431 618 353 689 226 689C154 689 105 669 56 619L39 483L68 483L81 529C97 587 133 612 200 612C286 612 341 558 341 473C341 398 299 324 186 204Z" stroke="rgb(0,0,0)" stroke-opacity="1" stroke-width="8" fill="rgb(0,0,0)" fill-opacity="1"></path></g></g></g></g></g></g></g></g></g></g><g><g><g><g><g><g><g transform="matrix(1,0,0,1,169.59375,166.796875)"><path transform="matrix(0.017,0,0,-0.017,0,0)" d="M416 25L416 -3C464 -1 509 0 551 0C591 0 636 -1 684 -3L684 25L659 27C618 30 605 37 591 61L420 368L641 620C671 653 680 659 706 662L734 664L734 692L620 689C608 689 594 689 505 692L505 664L538 662C570 660 583 655 583 643C583 632 578 623 560 601L399 405L295 604C286 622 281 634 281 642C281 654 294 660 324 662L361 664L361 692L315 691C274 690 244 689 228 689C211 689 181 690 140 691L95 692L95 664L121 662C170 657 182 650 202 613L348 343L110 61C95 43 72 31 48 28L20 25L20 -3C69 -1 110 0 145 0C181 0 221 -1 264 -3L264 25L232 28C194 32 177 38 177 50C177 58 181 67 187 75L369 306L488 80C497 62 502 49 502 40C502 32 495 29 470 29L454 28Z" stroke="rgb(0,0,0)" stroke-opacity="1" stroke-width="8" fill="rgb(0,0,0)" fill-opacity="1"></path></g></g><g><g><g><g><g transform="matrix(1,0,0,1,182.359375,169.80625)"><path transform="matrix(0.0119,0,0,-0.0119,0,0)" d="M418 -3L418 27L366 30C311 33 301 44 301 96L301 700L60 598L67 548L217 614L217 96C217 44 206 33 152 30L96 27L96 -3C250 0 250 0 261 0C292 0 402 -3 418 -3Z" stroke="rgb(0,0,0)" stroke-opacity="1" stroke-width="8" fill="rgb(0,0,0)" fill-opacity="1"></path></g></g></g></g></g></g></g></g></g></g><g><g><g><g><g><g><g transform="matrix(1,0,0,1,201,103)"><path transform="matrix(0.017,0,0,-0.017,0,0)" d="M345 437L329 437L350 549C366 635 394 673 440 673C470 673 497 658 512 634L522 638C527 654 537 685 545 705L550 720C534 727 503 733 480 733C469 733 453 730 445 726C421 715 339 654 316 630C294 608 282 578 271 521L256 442C215 422 195 414 170 405L165 383L246 383L237 327C207 132 170 -54 148 -123C130 -182 100 -213 64 -213C41 -213 30 -206 12 -184L-2 -188C-6 -211 -20 -259 -25 -268C-16 -273 -1 -276 10 -276C51 -276 105 -245 144 -198C215 -114 235 -18 319 383L423 383C427 402 434 425 440 439L436 446C407 439 408 437 345 437Z" stroke="rgb(0,0,0)" stroke-opacity="1" stroke-width="8" fill="rgb(0,0,0)" fill-opacity="1"></path></g></g><g><g><g><g><g transform="matrix(1,0,0,1,210.859375,106.009375)"><path transform="matrix(0.0119,0,0,-0.0119,0,0)" d="M418 -3L418 27L366 30C311 33 301 44 301 96L301 700L60 598L67 548L217 614L217 96C217 44 206 33 152 30L96 27L96 -3C250 0 250 0 261 0C292 0 402 -3 418 -3Z" stroke="rgb(0,0,0)" stroke-opacity="1" stroke-width="8" fill="rgb(0,0,0)" fill-opacity="1"></path></g></g></g></g></g></g></g></g></g></g><g><g><g><g><g><g><g transform="matrix(1,0,0,1,311,238.90625)"><path transform="matrix(0.017,0,0,-0.017,0,0)" d="M345 437L329 437L350 549C366 635 394 673 440 673C470 673 497 658 512 634L522 638C527 654 537 685 545 705L550 720C534 727 503 733 480 733C469 733 453 730 445 726C421 715 339 654 316 630C294 608 282 578 271 521L256 442C215 422 195 414 170 405L165 383L246 383L237 327C207 132 170 -54 148 -123C130 -182 100 -213 64 -213C41 -213 30 -206 12 -184L-2 -188C-6 -211 -20 -259 -25 -268C-16 -273 -1 -276 10 -276C51 -276 105 -245 144 -198C215 -114 235 -18 319 383L423 383C427 402 434 425 440 439L436 446C407 439 408 437 345 437Z" stroke="rgb(0,0,0)" stroke-opacity="1" stroke-width="8" fill="rgb(0,0,0)" fill-opacity="1"></path></g></g><g><g><g><g><g transform="matrix(1,0,0,1,320.859375,241.915625)"><path transform="matrix(0.0119,0,0,-0.0119,0,0)" d="M16 23L16 -3C203 -3 203 0 239 0C275 0 275 -3 468 -3L468 82C353 77 307 81 122 77L304 270C401 373 431 428 431 503C431 618 353 689 226 689C154 689 105 669 56 619L39 483L68 483L81 529C97 587 133 612 200 612C286 612 341 558 341 473C341 398 299 324 186 204Z" stroke="rgb(0,0,0)" stroke-opacity="1" stroke-width="8" fill="rgb(0,0,0)" fill-opacity="1"></path></g></g></g></g></g></g></g></g></g></g><g><g><g><g><g><g><g transform="matrix(1,0,0,1,181.59375,231.59375)"><path transform="matrix(0.017,0,0,-0.017,0,0)" d="M345 437L329 437L350 549C366 635 394 673 440 673C470 673 497 658 512 634L522 638C527 654 537 685 545 705L550 720C534 727 503 733 480 733C469 733 453 730 445 726C421 715 339 654 316 630C294 608 282 578 271 521L256 442C215 422 195 414 170 405L165 383L246 383L237 327C207 132 170 -54 148 -123C130 -182 100 -213 64 -213C41 -213 30 -206 12 -184L-2 -188C-6 -211 -20 -259 -25 -268C-16 -273 -1 -276 10 -276C51 -276 105 -245 144 -198C215 -114 235 -18 319 383L423 383C427 402 434 425 440 439L436 446C407 439 408 437 345 437Z" stroke="rgb(0,0,0)" stroke-opacity="1" stroke-width="8" fill="rgb(0,0,0)" fill-opacity="1"></path></g></g><g><g><g><g><g transform="matrix(1,0,0,1,191.453125,234.603125)"><path transform="matrix(0.0119,0,0,-0.0119,0,0)" d="M16 23L16 -3C203 -3 203 0 239 0C275 0 275 -3 468 -3L468 82C353 77 307 81 122 77L304 270C401 373 431 428 431 503C431 618 353 689 226 689C154 689 105 669 56 619L39 483L68 483L81 529C97 587 133 612 200 612C286 612 341 558 341 473C341 398 299 324 186 204Z" stroke="rgb(0,0,0)" stroke-opacity="1" stroke-width="8" fill="rgb(0,0,0)" fill-opacity="1"></path></g></g></g></g></g></g></g></g></g></g><g><g><g><g><g><g><g transform="matrix(1,0,0,1,422,131)"><path transform="matrix(0.017,0,0,-0.017,0,0)" d="M416 25L416 -3C464 -1 509 0 551 0C591 0 636 -1 684 -3L684 25L659 27C618 30 605 37 591 61L420 368L641 620C671 653 680 659 706 662L734 664L734 692L620 689C608 689 594 689 505 692L505 664L538 662C570 660 583 655 583 643C583 632 578 623 560 601L399 405L295 604C286 622 281 634 281 642C281 654 294 660 324 662L361 664L361 692L315 691C274 690 244 689 228 689C211 689 181 690 140 691L95 692L95 664L121 662C170 657 182 650 202 613L348 343L110 61C95 43 72 31 48 28L20 25L20 -3C69 -1 110 0 145 0C181 0 221 -1 264 -3L264 25L232 28C194 32 177 38 177 50C177 58 181 67 187 75L369 306L488 80C497 62 502 49 502 40C502 32 495 29 470 29L454 28Z" stroke="rgb(0,0,0)" stroke-opacity="1" stroke-width="8" fill="rgb(0,0,0)" fill-opacity="1"></path></g></g><g><g><g><g><g transform="matrix(1,0,0,1,434.765625,134.009375)"><path transform="matrix(0.0119,0,0,-0.0119,0,0)" d="M418 -3L418 27L366 30C311 33 301 44 301 96L301 700L60 598L67 548L217 614L217 96C217 44 206 33 152 30L96 27L96 -3C250 0 250 0 261 0C292 0 402 -3 418 -3Z" stroke="rgb(0,0,0)" stroke-opacity="1" stroke-width="8" fill="rgb(0,0,0)" fill-opacity="1"></path></g></g></g></g></g><g><g transform="matrix(1,0,0,1,441.734375,131)"><path transform="matrix(0.017,0,0,-0.017,0,0)" d="" stroke="rgb(0,0,0)" stroke-opacity="1" stroke-width="8" fill="rgb(0,0,0)" fill-opacity="1"></path></g></g><g><g transform="matrix(1,0,0,1,451.0625,131)"><path transform="matrix(0.017,0,0,-0.017,0,0)" d="M604 347L604 406L65 406L65 347ZM604 134L604 193L65 193L65 134Z" stroke="rgb(0,0,0)" stroke-opacity="1" stroke-width="8" fill="rgb(0,0,0)" fill-opacity="1"></path></g></g><g><g transform="matrix(1,0,0,1,467.515625,131)"><path transform="matrix(0.017,0,0,-0.017,0,0)" d="M594 437L578 437L599 549C615 635 643 673 689 673C719 673 746 658 761 634L771 638C776 654 786 685 794 705L799 720C783 727 752 733 729 733C718 733 702 730 694 726C670 715 588 654 565 630C543 608 531 578 520 521L505 442C464 422 444 414 419 405L414 383L495 383L486 327C456 132 419 -54 397 -123C379 -182 349 -213 313 -213C290 -213 279 -206 261 -184L247 -188C243 -211 229 -259 224 -268C233 -273 248 -276 259 -276C300 -276 354 -245 393 -198C464 -114 484 -18 568 383L672 383C676 402 683 425 689 439L685 446C656 439 657 437 594 437Z" stroke="rgb(0,0,0)" stroke-opacity="1" stroke-width="8" fill="rgb(0,0,0)" fill-opacity="1"></path></g></g><g><g><g><g><g transform="matrix(1,0,0,1,481.609375,134.009375)"><path transform="matrix(0.0119,0,0,-0.0119,0,0)" d="M418 -3L418 27L366 30C311 33 301 44 301 96L301 700L60 598L67 548L217 614L217 96C217 44 206 33 152 30L96 27L96 -3C250 0 250 0 261 0C292 0 402 -3 418 -3Z" stroke="rgb(0,0,0)" stroke-opacity="1" stroke-width="8" fill="rgb(0,0,0)" fill-opacity="1"></path></g></g></g></g></g><g><g transform="matrix(1,0,0,1,488.578125,131)"><path transform="matrix(0.017,0,0,-0.017,0,0)" d="M146 266C146 526 243 632 301 700L282 726C225 675 60 542 60 266C60 159 85 58 133 -32C168 -99 200 -138 282 -215L301 -194C255 -137 146 -15 146 266Z" stroke="rgb(0,0,0)" stroke-opacity="1" stroke-width="8" fill="rgb(0,0,0)" fill-opacity="1"></path></g></g><g><g transform="matrix(1,0,0,1,494.234375,131)"><path transform="matrix(0.017,0,0,-0.017,0,0)" d="M795 664L798 692L782 692L691 689C676 689 655 689 611 690L548 692L545 664L593 662C617 661 628 653 628 634C628 629 628 626 627 622L556 177C508 119 478 93 427 68C389 48 352 39 314 39C229 39 175 84 175 154C175 171 177 187 182 215L270 692L239 691C212 690 192 689 181 689C171 689 151 690 123 691L91 692L88 664L140 662C166 661 174 656 174 639C174 630 171 602 167 581L103 206C99 185 97 160 97 144C97 43 164 -19 276 -19C320 -19 361 -9 409 15C468 44 500 69 552 129C544 83 538 57 525 2L530 -3L552 -3L614 0C618 0 640 -1 672 -2L704 -3L709 25L649 29C626 31 617 37 617 50C617 65 618 70 623 106L708 613C714 651 721 657 759 661Z" stroke="rgb(0,0,0)" stroke-opacity="1" stroke-width="8" fill="rgb(0,0,0)" fill-opacity="1"></path></g></g><g><g><g><g><g transform="matrix(1,0,0,1,507.953125,134.009375)"><path transform="matrix(0.0119,0,0,-0.0119,0,0)" d="M418 -3L418 27L366 30C311 33 301 44 301 96L301 700L60 598L67 548L217 614L217 96C217 44 206 33 152 30L96 27L96 -3C250 0 250 0 261 0C292 0 402 -3 418 -3Z" stroke="rgb(0,0,0)" stroke-opacity="1" stroke-width="8" fill="rgb(0,0,0)" fill-opacity="1"></path></g></g></g></g></g><g><g transform="matrix(1,0,0,1,514.921875,131)"><path transform="matrix(0.017,0,0,-0.017,0,0)" d="M51 726L32 700C87 636 187 526 187 266C187 -10 83 -131 32 -194L51 -215C104 -165 273 -23 273 265C273 542 108 675 51 726Z" stroke="rgb(0,0,0)" stroke-opacity="1" stroke-width="8" fill="rgb(0,0,0)" fill-opacity="1"></path></g></g></g></g></g></g></g><g><g><g><g><g><g><g transform="matrix(1,0,0,1,422,164)"><path transform="matrix(0.017,0,0,-0.017,0,0)" d="M416 25L416 -3C464 -1 509 0 551 0C591 0 636 -1 684 -3L684 25L659 27C618 30 605 37 591 61L420 368L641 620C671 653 680 659 706 662L734 664L734 692L620 689C608 689 594 689 505 692L505 664L538 662C570 660 583 655 583 643C583 632 578 623 560 601L399 405L295 604C286 622 281 634 281 642C281 654 294 660 324 662L361 664L361 692L315 691C274 690 244 689 228 689C211 689 181 690 140 691L95 692L95 664L121 662C170 657 182 650 202 613L348 343L110 61C95 43 72 31 48 28L20 25L20 -3C69 -1 110 0 145 0C181 0 221 -1 264 -3L264 25L232 28C194 32 177 38 177 50C177 58 181 67 187 75L369 306L488 80C497 62 502 49 502 40C502 32 495 29 470 29L454 28Z" stroke="rgb(0,0,0)" stroke-opacity="1" stroke-width="8" fill="rgb(0,0,0)" fill-opacity="1"></path></g></g><g><g><g><g><g transform="matrix(1,0,0,1,434.765625,167.009375)"><path transform="matrix(0.0119,0,0,-0.0119,0,0)" d="M16 23L16 -3C203 -3 203 0 239 0C275 0 275 -3 468 -3L468 82C353 77 307 81 122 77L304 270C401 373 431 428 431 503C431 618 353 689 226 689C154 689 105 669 56 619L39 483L68 483L81 529C97 587 133 612 200 612C286 612 341 558 341 473C341 398 299 324 186 204Z" stroke="rgb(0,0,0)" stroke-opacity="1" stroke-width="8" fill="rgb(0,0,0)" fill-opacity="1"></path></g></g></g></g></g><g><g transform="matrix(1,0,0,1,441.734375,164)"><path transform="matrix(0.017,0,0,-0.017,0,0)" d="" stroke="rgb(0,0,0)" stroke-opacity="1" stroke-width="8" fill="rgb(0,0,0)" fill-opacity="1"></path></g></g><g><g transform="matrix(1,0,0,1,451.0625,164)"><path transform="matrix(0.017,0,0,-0.017,0,0)" d="M604 347L604 406L65 406L65 347ZM604 134L604 193L65 193L65 134Z" stroke="rgb(0,0,0)" stroke-opacity="1" stroke-width="8" fill="rgb(0,0,0)" fill-opacity="1"></path></g></g><g><g transform="matrix(1,0,0,1,467.515625,164)"><path transform="matrix(0.017,0,0,-0.017,0,0)" d="M594 437L578 437L599 549C615 635 643 673 689 673C719 673 746 658 761 634L771 638C776 654 786 685 794 705L799 720C783 727 752 733 729 733C718 733 702 730 694 726C670 715 588 654 565 630C543 608 531 578 520 521L505 442C464 422 444 414 419 405L414 383L495 383L486 327C456 132 419 -54 397 -123C379 -182 349 -213 313 -213C290 -213 279 -206 261 -184L247 -188C243 -211 229 -259 224 -268C233 -273 248 -276 259 -276C300 -276 354 -245 393 -198C464 -114 484 -18 568 383L672 383C676 402 683 425 689 439L685 446C656 439 657 437 594 437Z" stroke="rgb(0,0,0)" stroke-opacity="1" stroke-width="8" fill="rgb(0,0,0)" fill-opacity="1"></path></g></g><g><g><g><g><g transform="matrix(1,0,0,1,481.609375,167.009375)"><path transform="matrix(0.0119,0,0,-0.0119,0,0)" d="M16 23L16 -3C203 -3 203 0 239 0C275 0 275 -3 468 -3L468 82C353 77 307 81 122 77L304 270C401 373 431 428 431 503C431 618 353 689 226 689C154 689 105 669 56 619L39 483L68 483L81 529C97 587 133 612 200 612C286 612 341 558 341 473C341 398 299 324 186 204Z" stroke="rgb(0,0,0)" stroke-opacity="1" stroke-width="8" fill="rgb(0,0,0)" fill-opacity="1"></path></g></g></g></g></g><g><g transform="matrix(1,0,0,1,488.578125,164)"><path transform="matrix(0.017,0,0,-0.017,0,0)" d="M146 266C146 526 243 632 301 700L282 726C225 675 60 542 60 266C60 159 85 58 133 -32C168 -99 200 -138 282 -215L301 -194C255 -137 146 -15 146 266Z" stroke="rgb(0,0,0)" stroke-opacity="1" stroke-width="8" fill="rgb(0,0,0)" fill-opacity="1"></path></g></g><g><g transform="matrix(1,0,0,1,494.234375,164)"><path transform="matrix(0.017,0,0,-0.017,0,0)" d="M416 25L416 -3C464 -1 509 0 551 0C591 0 636 -1 684 -3L684 25L659 27C618 30 605 37 591 61L420 368L641 620C671 653 680 659 706 662L734 664L734 692L620 689C608 689 594 689 505 692L505 664L538 662C570 660 583 655 583 643C583 632 578 623 560 601L399 405L295 604C286 622 281 634 281 642C281 654 294 660 324 662L361 664L361 692L315 691C274 690 244 689 228 689C211 689 181 690 140 691L95 692L95 664L121 662C170 657 182 650 202 613L348 343L110 61C95 43 72 31 48 28L20 25L20 -3C69 -1 110 0 145 0C181 0 221 -1 264 -3L264 25L232 28C194 32 177 38 177 50C177 58 181 67 187 75L369 306L488 80C497 62 502 49 502 40C502 32 495 29 470 29L454 28Z" stroke="rgb(0,0,0)" stroke-opacity="1" stroke-width="8" fill="rgb(0,0,0)" fill-opacity="1"></path></g></g><g><g><g><g><g transform="matrix(1,0,0,1,507,167.009375)"><path transform="matrix(0.0119,0,0,-0.0119,0,0)" d="M418 -3L418 27L366 30C311 33 301 44 301 96L301 700L60 598L67 548L217 614L217 96C217 44 206 33 152 30L96 27L96 -3C250 0 250 0 261 0C292 0 402 -3 418 -3Z" stroke="rgb(0,0,0)" stroke-opacity="1" stroke-width="8" fill="rgb(0,0,0)" fill-opacity="1"></path></g></g></g></g></g><g><g transform="matrix(1,0,0,1,513.96875,164)"><path transform="matrix(0.017,0,0,-0.017,0,0)" d="M204 123C177 114 159 108 106 93C99 17 74 -48 16 -144L30 -155L71 -136C152 -31 190 32 218 109Z" stroke="rgb(0,0,0)" stroke-opacity="1" stroke-width="8" fill="rgb(0,0,0)" fill-opacity="1"></path></g></g><g><g transform="matrix(1,0,0,1,521.59375,164)"><path transform="matrix(0.017,0,0,-0.017,0,0)" d="M1044 664L1047 692L1031 692L940 689C925 689 904 689 860 690L797 692L794 664L842 662C866 661 877 653 877 634C877 629 877 626 876 622L805 177C757 119 727 93 676 68C638 48 601 39 563 39C478 39 424 84 424 154C424 171 426 187 431 215L519 692L488 691C461 690 441 689 430 689C420 689 400 690 372 691L340 692L337 664L389 662C415 661 423 656 423 639C423 630 420 602 416 581L352 206C348 185 346 160 346 144C346 43 413 -19 525 -19C569 -19 610 -9 658 15C717 44 749 69 801 129C793 83 787 57 774 2L779 -3L801 -3L863 0C867 0 889 -1 921 -2L953 -3L958 25L898 29C875 31 866 37 866 50C866 65 867 70 872 106L957 613C963 651 970 657 1008 661Z" stroke="rgb(0,0,0)" stroke-opacity="1" stroke-width="8" fill="rgb(0,0,0)" fill-opacity="1"></path></g></g><g><g><g><g><g transform="matrix(1,0,0,1,539.546875,167.009375)"><path transform="matrix(0.0119,0,0,-0.0119,0,0)" d="M16 23L16 -3C203 -3 203 0 239 0C275 0 275 -3 468 -3L468 82C353 77 307 81 122 77L304 270C401 373 431 428 431 503C431 618 353 689 226 689C154 689 105 669 56 619L39 483L68 483L81 529C97 587 133 612 200 612C286 612 341 558 341 473C341 398 299 324 186 204Z" stroke="rgb(0,0,0)" stroke-opacity="1" stroke-width="8" fill="rgb(0,0,0)" fill-opacity="1"></path></g></g></g></g></g><g><g transform="matrix(1,0,0,1,546.515625,164)"><path transform="matrix(0.017,0,0,-0.017,0,0)" d="M51 726L32 700C87 636 187 526 187 266C187 -10 83 -131 32 -194L51 -215C104 -165 273 -23 273 265C273 542 108 675 51 726Z" stroke="rgb(0,0,0)" stroke-opacity="1" stroke-width="8" fill="rgb(0,0,0)" fill-opacity="1"></path></g></g></g></g></g></g></g></svg>
</svg>
